Coordinates
version=1
nRows=10
nColumns=34
inDegrees=yes

Units are S.I. units (second, meters, Newtons, ...)
If the header above contains a line with 'inDegrees', this indicates whether rotational values are in degrees (yes) or radians (no).

endheader
time	pelvis_tilt	pelvis_list	pelvis_rotation	pelvis_tx	pelvis_ty	pelvis_tz	hip_flexion_r	hip_adduction_r	hip_rotation_r	knee_angle_r	ankle_angle_r	subtalar_angle_r	mtp_angle_r	hip_flexion_l	hip_adduction_l	hip_rotation_l	knee_angle_l	ankle_angle_l	subtalar_angle_l	mtp_angle_l	lumbar_extension	lumbar_bending	lumbar_rotation	arm_flex_r	arm_add_r	arm_rot_r	elbow_flex_r	pro_sup_r	arm_flex_l	arm_add_l	arm_rot_l	elbow_flex_l	pro_sup_l
      2.80000000	    -23.48936400	      3.41945954	     -2.95797941	      0.48701585	      0.99617054	     -0.08929908	     55.66526829	     -6.83019009	     -1.35615065	     23.02716788	     12.37773367	    -16.14449640	      0.00000000	     51.87655999	     -5.33636233	     -5.19853536	     19.30413725	     17.09259836	     -6.58765248	      0.00000000	     -3.88098454	     -5.04390429	     -3.24503992	     53.02952767	    -21.23550410	     26.75992888	    116.12543922	     97.78715921	     67.86388808	    -13.86144937	     21.57241125	    103.60139694	     77.83125400
      2.81666670	    -23.51515442	      2.80333494	     -2.70368286	      0.50264143	      0.95900144	     -0.09035403	     58.12651275	     -6.59607390	     -0.71020071	     27.24356428	     13.26628826	    -17.41698652	      0.00000000	     54.73705152	     -5.87642449	     -5.11087326	     24.13280954	     19.71693723	     -5.33029497	      0.00000000	     -4.32253054	     -4.58510317	     -3.45949828	     55.30864395	    -22.03512563	     26.57634313	    117.30843944	     98.09893878	     70.05192144	    -12.97555895	     21.89388289	    103.76302618	     77.80562825
      2.83333330	    -23.43959561	      2.03914812	     -2.41491081	      0.51977728	      0.91098973	     -0.09282685	     60.80253453	     -6.40625580	     -0.50741646	     32.01013644	     11.48587775	    -18.75600135	      0.00000000	     58.30685164	     -6.74786131	     -4.72864658	     30.42636199	     18.98631445	     -5.81210518	      0.00000000	     -4.97282338	     -4.02057206	     -3.53923057	     57.71145618	    -22.77908441	     25.85619329	    116.75020714	     98.30229743	     72.38670688	    -11.70955033	     22.22111393	    103.44873252	     77.80761549
      2.85000000	    -23.14147326	      1.26209908	     -1.86289733	      0.53133876	      0.86936136	     -0.09583151	     64.83419976	     -6.55208496	      0.01336597	     39.07961230	      8.68247539	    -19.01048415	      0.00000000	     63.27440268	     -7.35794935	     -3.92537907	     39.29782404	     16.91097274	     -6.68921289	      0.00000000	     -6.51095780	     -3.36433338	     -4.09814166	     60.38889040	    -23.09205101	     24.99374240	    116.20285463	     98.43586681	     75.34680998	    -10.55728844	     22.66203357	    102.94116937	     77.85357810
      2.86666670	    -22.93530014	      0.55592327	     -1.65588049	      0.53889297	      0.83723320	     -0.09581989	     70.23000969	     -6.55373500	      0.56378838	     48.54951455	      7.73517983	    -18.82261597	      0.00000000	     69.49291225	     -8.06533869	     -2.25781846	     50.14932323	     15.47083885	     -7.54910331	      0.00000000	     -9.05952805	     -2.73505722	     -4.16020940	     63.70174874	    -22.62800786	     24.10553452	    115.66373808	     98.51355344	     78.16689352	     -9.29076892	     22.90435393	    102.76977135	     77.97329827
      2.88333330	    -22.23689667	     -0.05477661	     -1.59925514	      0.54703920	      0.80064828	     -0.09753945	     76.07056996	     -6.82434149	      1.03718524	     59.99864037	      9.06884332	    -17.85335078	      0.00000000	     76.13016408	     -8.62685010	     -0.25802404	     62.53292549	     15.91714663	     -7.95077818	      0.00000000	    -12.51351622	     -2.03466087	     -4.03079144	     67.86992971	    -21.98753222	     23.38565639	    114.93245603	     98.53899270	     81.40035937	     -8.18050204	     23.07167730	    102.38326893	     78.10873194
      2.90000000	    -21.65647190	     -0.61285952	     -1.51063009	      0.56097647	      0.76557432	     -0.10257976	     81.38181244	     -7.60574131	      1.27371602	     70.76293017	     13.39464889	    -14.62477652	      0.00000000	     82.27256351	     -8.57118212	      1.87916076	     74.00609511	     18.11406750	     -8.09114624	      0.00000000	    -15.71088000	     -1.02893886	     -3.82195332	     71.88528608	    -21.23459418	     23.44734757	    113.55267361	     98.57021944	     83.81574196	     -7.11054528	     23.30712968	    101.11246070	     78.33352016
      2.91666670	    -21.70830102	     -0.76722224	     -1.24045753	      0.56916708	      0.74060472	     -0.09972870	     85.81116007	     -8.26043653	      1.87183063	     78.86801559	     16.90032416	    -11.76103900	      0.00000000	     87.33996067	     -8.54646444	      3.25097579	     82.50526790	     19.70280098	     -7.44597231	      0.00000000	    -18.87586863	     -0.68101465	     -3.54307486	     75.04370770	    -19.47969713	     22.47083430	    111.93514686	     98.49129412	     85.70991124	     -5.91417152	     22.80007755	    100.50573063	     78.56571036
      2.93333330	    -22.49641677	     -0.69412487	     -1.17670015	      0.57771728	      0.71595368	     -0.10070748	     89.67322967	     -8.92174771	      2.37487798	     84.34737208	     20.07512641	     -9.04882549	      0.00000000	     91.72522981	     -8.69236333	      4.04810709	     88.59049364	     20.90375313	     -6.59280067	      0.00000000	    -21.11332473	     -0.52670732	     -3.43220597	     77.17188248	    -17.17346284	     21.89766002	    109.98444401	     98.44919837	     86.97238336	     -4.85265342	     22.58040797	     99.02708434	     78.78585474
      2.95000000	    -23.99318078	     -0.40452196	     -1.50688848	      0.59459553	      0.69030786	     -0.11029388	     93.31160122	     -9.77743389	      3.03732345	     88.59372862	     23.42910776	     -5.85137028	      0.00000000	     95.33454928	     -8.79310894	      4.27677316	     93.01995641	     22.66772717	     -5.65241208	      0.00000000	    -21.87979436	     -0.19487590	     -3.36144685	     77.92571424	    -15.08536348	     21.15868370	    108.65317644	     98.43787509	     87.05037021	     -3.98710756	     22.11769035	     97.35973449	     78.96029528
